<?xml version="1.0" standalone="no"?>
<!DOCTYPE svg PUBLIC "-//W3C//DTD SVG 20010904//EN"
 "http://www.w3.org/TR/2001/REC-SVG-20010904/DTD/svg10.dtd">
<svg version="1.0" xmlns="http://www.w3.org/2000/svg"
 width="500.000000pt" height="500.000000pt" viewBox="0 0 500.000000 500.000000"
 preserveAspectRatio="xMidYMid meet">

<g transform="translate(0.000000,500.000000) scale(0.100000,-0.100000)"
fill="#000000" stroke="none">
<path d="M1257 2962 c-88 -90 -97 -103 -97 -136 0 -33 9 -47 61 -102 l62 -64
-57 -54 c-52 -51 -56 -57 -56 -101 0 -43 4 -51 57 -106 l57 -60 -27 -27 -27
-26 -42 39 c-24 22 -70 66 -104 98 -54 52 -62 56 -74 42 -12 -14 -1 -28 85
-115 56 -56 95 -103 91 -109 -18 -28 -54 -8 -142 80 -79 79 -92 88 -104 75
-11 -14 -3 -27 55 -92 134 -149 163 -156 261 -62 l64 61 59 -56 c53 -51 64
-57 101 -57 37 0 48 6 101 57 l59 56 25 -23 c14 -13 25 -28 25 -33 0 -5 -41
-52 -92 -103 -78 -80 -89 -96 -78 -109 11 -13 26 -3 112 81 97 94 100 96 119
78 20 -18 18 -19 -81 -119 -79 -79 -98 -103 -88 -113 7 -7 16 -12 21 -12 13 0
227 212 227 225 0 6 -34 46 -77 88 -75 76 -76 77 -58 97 16 18 17 22 4 35 -12
13 -26 4 -104 -70 -64 -60 -97 -85 -115 -85 -19 0 -54 29 -142 118 -64 64
-117 124 -118 132 -5 34 4 46 85 130 75 76 84 89 70 100 -13 11 -19 10 -35 -5
-20 -18 -21 -18 -50 10 l-30 29 100 101 c88 88 99 103 86 114 -19 16 -55 -11
-155 -113 -36 -36 -68 -63 -73 -60 -19 12 -6 52 28 85 20 18 59 60 86 92 45
51 49 60 37 73 -13 12 -27 2 -112 -84z"/>
<path d="M1773 2815 c-15 -7 -50 -36 -78 -64 -47 -48 -48 -52 -32 -68 16 -16
19 -16 44 10 l28 27 97 -97 c90 -89 99 -96 114 -81 15 14 8 24 -80 115 -72 76
-93 102 -84 111 7 7 17 12 24 12 6 0 55 -41 108 -91 82 -78 99 -89 112 -78 13
11 2 25 -82 110 -53 53 -107 99 -120 102 -12 2 -35 -2 -51 -8z"/>
<path d="M2370 2777 c0 -8 9 -40 20 -71 l19 -57 -24 -66 c-14 -36 -25 -67 -25
-69 0 -2 13 -4 29 -4 25 0 30 5 41 46 14 49 24 48 37 -6 8 -30 14 -35 41 -38
l32 -3 -26 68 -26 68 21 66 c26 82 26 81 -6 77 -19 -2 -29 -11 -36 -33 -5 -16
-11 -37 -14 -45 -3 -9 -11 5 -19 33 -12 40 -19 47 -39 47 -14 0 -25 -6 -25
-13z"/>
<path d="M2582 2778 c-17 -17 -17 -239 0 -256 7 -7 38 -12 70 -12 74 0 78 8
78 144 0 126 -6 136 -84 136 -28 0 -57 -5 -64 -12z m88 -129 c0 -98 0 -100
-22 -97 -22 3 -23 9 -26 87 -3 98 0 111 28 111 19 0 20 -6 20 -101z"/>
<path d="M2760 2782 c0 -5 14 -45 30 -90 18 -50 30 -102 30 -132 0 -47 2 -50
25 -50 23 0 25 3 25 50 0 30 12 82 30 132 17 45 30 85 30 90 0 4 -11 8 -25 8
-21 0 -27 -7 -40 -55 -9 -30 -18 -55 -20 -55 -2 0 -11 25 -20 55 -13 48 -19
55 -40 55 -14 0 -25 -4 -25 -8z"/>
<path d="M2976 2768 c-19 -26 -23 -207 -6 -239 9 -15 22 -19 68 -19 32 0 63 5
70 12 17 17 17 239 0 256 -7 7 -36 12 -64 12 -43 0 -56 -4 -68 -22z m92 -120
l3 -98 -26 0 -25 0 0 101 c0 98 0 100 23 97 21 -3 22 -8 25 -100z"/>
<path d="M3182 2778 c-17 -17 -17 -239 0 -256 12 -12 95 -16 122 -6 11 4 16
19 16 45 0 35 -3 39 -25 39 -20 0 -25 -5 -25 -26 0 -21 -4 -25 -22 -22 -22 3
-23 7 -23 98 0 91 1 95 23 98 17 3 22 -2 22 -17 0 -16 6 -21 25 -21 21 0 25 5
25 28 0 15 -5 33 -12 40 -16 16 -110 16 -126 0z"/>
<path d="M3490 2780 c-12 -7 -16 -37 -18 -140 l-4 -130 31 0 31 0 0 120 c0
113 1 120 20 120 19 0 20 -7 20 -120 l0 -120 30 0 30 0 0 124 c0 146 -5 156
-78 156 -26 0 -54 -5 -62 -10z"/>
<path d="M3677 2784 c-4 -4 -7 -67 -7 -141 l0 -133 65 0 c63 0 65 1 65 25 0
22 -4 25 -35 25 -33 0 -35 2 -35 35 0 32 2 35 30 35 23 0 30 4 30 20 0 16 -7
20 -30 20 -28 0 -30 3 -30 35 0 33 2 35 36 35 31 0 35 3 32 23 -3 19 -10 22
-58 25 -31 2 -59 0 -63 -4z"/>
<path d="M3820 2765 c0 -18 5 -25 20 -25 19 0 20 -7 20 -115 l0 -115 30 0 30
0 0 115 c0 108 1 115 20 115 15 0 20 7 20 25 0 24 -2 25 -70 25 -68 0 -70 -1
-70 -25z"/>
<path d="M1367 2571 c-26 -28 -47 -60 -47 -72 0 -13 25 -47 64 -87 75 -77 106
-85 157 -36 43 41 53 62 38 80 -10 13 -18 9 -56 -28 l-43 -42 -55 54 c-30 30
-55 57 -55 60 0 4 16 26 36 49 32 37 35 44 22 57 -13 13 -20 9 -61 -35z"/>
<path d="M3374 2545 c-8 -19 3 -35 26 -35 19 0 34 25 24 41 -8 14 -44 10 -50
-6z"/>
<path d="M3395 2379 c-12 -19 5 -23 22 -6 16 16 16 17 1 17 -9 0 -20 -5 -23
-11z"/>
<path d="M2767 2343 c-4 -3 -7 -37 -7 -75 0 -54 3 -68 15 -68 12 0 15 14 15
65 0 51 3 65 15 65 12 0 15 -14 15 -65 0 -51 3 -65 15 -65 12 0 15 14 15 65 0
37 4 65 10 65 6 0 10 -28 10 -65 0 -51 3 -65 15 -65 12 0 15 15 15 75 l0 75
-63 0 c-35 0 -67 -3 -70 -7z"/>
<path d="M2930 2275 c0 -60 3 -75 15 -75 12 0 15 15 15 75 0 60 -3 75 -15 75
-12 0 -15 -15 -15 -75z"/>
<path d="M3030 2339 c0 -7 5 -41 12 -76 10 -55 14 -64 32 -61 16 2 23 15 33
63 16 77 16 85 0 85 -8 0 -18 -19 -23 -47 l-10 -48 -8 48 c-5 29 -13 47 -22
47 -8 0 -14 -5 -14 -11z"/>
<path d="M3140 2275 c0 -60 3 -75 15 -75 12 0 15 15 15 75 0 60 -3 75 -15 75
-12 0 -15 -15 -15 -75z"/>
<path d="M3202 2308 c2 -36 7 -44 26 -46 22 -3 33 -42 12 -42 -5 0 -10 5 -10
10 0 6 -7 10 -16 10 -9 0 -14 -7 -12 -17 2 -13 13 -18 38 -18 34 0 35 1 35 40
0 34 -3 40 -22 43 -23 3 -34 42 -13 42 6 0 10 -4 10 -10 0 -5 7 -10 16 -10 9
0 14 7 12 18 -2 12 -14 18 -41 20 l-38 3 3 -43z"/>
<path d="M3310 2275 c0 -60 3 -75 15 -75 12 0 15 15 15 75 0 60 -3 75 -15 75
-12 0 -15 -15 -15 -75z"/>
<path d="M3364 2337 c-3 -8 -4 -41 -2 -73 l3 -59 40 0 40 0 0 70 0 70 -38 3
c-25 2 -39 -1 -43 -11z m56 -63 c0 -73 -24 -70 -28 4 -2 42 0 52 12 52 13 0
16 -12 16 -56z"/>
<path d="M3480 2275 c0 -60 3 -75 15 -75 12 0 15 14 15 65 0 37 4 65 10 65 6
0 10 -28 10 -65 0 -51 3 -65 15 -65 12 0 15 15 15 75 l0 75 -40 0 -40 0 0 -75z"/>
</g>
</svg>
